<?xml version="1.0" encoding="utf-8"?>
<!-- Generator: Adobe Illustrator 22.0.1, SVG Export Plug-In . SVG Version: 6.00 Build 0)  -->
<svg version="1.1" id="Layer_1" xmlns="http://www.w3.org/2000/svg" xmlns:xlink="http://www.w3.org/1999/xlink" x="0px" y="0px"
	 viewBox="0 0 102 80" style="enable-background:new 0 0 102 80;" xml:space="preserve">
<style type="text/css">
	.st0{fill:#FFFFFF;}
</style>
<g>
	<path class="st0" d="M6.9,70.2c0.9,0,1.8,0.4,2.4,1.1l2.2-1.9c-1.2-1.4-2.9-2.1-4.6-2.1c-3.4,0-6.1,2.7-6.1,6.1
		c0,1.8,0.8,3.4,2,4.5c0.9,0.7,1.9,1.4,3.5,1.5c0.2,0,0.4,0,0.6,0c1.7,0,3.2-0.7,4.4-1.9l-2.1-2c-0.6,0.6-1.4,1-2.3,1
		c-1.8,0-3.2-1.4-3.2-3.2C3.8,71.6,5.2,70.2,6.9,70.2z"/>
	<path class="st0" d="M20.6,67.2c-3.4,0-6.1,2.7-6.1,6.1c0,3.4,2.7,6.1,6.1,6.1s6.1-2.7,6.1-6.1C26.7,70,24,67.2,20.6,67.2z
		 M20.6,76.5c-1.8,0-3.2-1.4-3.2-3.2s1.5-3.2,3.2-3.2c1.8,0,3.2,1.4,3.2,3.2C23.8,75.1,22.4,76.5,20.6,76.5z"/>
	<polygon class="st0" points="38.8,74.5 34.1,67.4 30.9,67.4 30.9,79.3 33.8,79.3 33.8,72.2 38.5,79.3 41.7,79.3 41.7,67.4 
		38.8,67.4 	"/>
	<polygon class="st0" points="46.4,79.3 49.3,79.3 49.3,74.8 54.4,74.8 54.4,71.9 49.3,71.9 49.3,70.3 55.8,70.3 55.8,67.4 
		46.4,67.4 	"/>
	<polygon class="st0" points="62.8,67.4 59.9,67.4 59.9,79.3 69.4,79.3 69.4,76.4 62.8,76.4 	"/>
	<path class="st0" d="M80.9,74.2c0,1.3-1,2.4-2.4,2.4c-1.3,0-2.4-1-2.4-2.4v-6.8h-2.9v6.8c0,2.9,2.4,5.3,5.3,5.3
		c2.9,0,5.3-2.4,5.3-5.3v-6.8h-2.9L80.9,74.2L80.9,74.2z"/>
	<polygon class="st0" points="101.1,67.4 97.5,67.3 94.6,71 91.8,67.3 88.1,67.4 92.8,73.3 88.1,79.3 91.8,79.3 94.6,75.7 
		97.5,79.3 101.1,79.3 96.5,73.3 	"/>
	<path class="st0" d="M89.8,38c0.6,0,0.9-0.1,0.9-0.1s-0.3,0-0.9-0.1c-0.6,0-1.5-0.1-2.5-0.2c-0.1,0-0.1,0-0.2,0c0-0.1,0-0.3,0-0.5
		c0-0.4,0-1.1,0-1.9c-0.1-1.6-0.3-4.1-1.1-7.1c-0.2-0.7-0.4-1.5-0.7-2.3c0.1,0.2,0.3,0.5,0.4,0.7c-4.4-15-18.3-25.9-34.8-25.9
		c-9.9,0-18.8,3.9-25.3,10.2c-0.6,0.6-1.3,1.2-1.9,1.8c-1.2,1.3-2.3,2.6-3.4,4.1c-1,1.5-1.9,3-2.7,4.5c-0.8,1.6-1.5,3.2-2,4.9
		c-0.5,1.7-0.9,3.4-1.2,5.2c-0.1,0.9-0.2,1.8-0.3,2.7c-0.1,0.9-0.1,1.8-0.1,2.7c0,0.3,0,0.6,0,0.9c-1,0.1-1.9,0.2-2.4,0.2
		c-0.6,0-0.9,0.1-0.9,0.1s0.3,0,0.9,0.1c0.6,0,1.4,0.1,2.5,0.2c0.3,6.4,2.4,12.7,5.8,18c0.2,0,0.3,0,0.5,0c-0.9-1.4-1.7-2.8-2.4-4.2
		c-0.7-1.6-1.3-3.2-1.9-4.9c-0.5-1.7-0.8-3.4-1.1-5.1c-0.1-1.2-0.2-2.4-0.3-3.7c1,0.1,2,0.2,3.3,0.2c1.5,0.1,3.3,0.2,5.1,0.3
		c1.4,0.1,2.9,0.1,4.4,0.2c0.2,4.4,1,8.7,2.4,12.8c-5.1-0.9-8.4-1.8-8.4-1.8s10.8,6.4,29.1,6.3l0,3.5c0,0.2,0.2,0.3,0.4,0.2
		c0.1,0,0.1-0.1,0.1-0.2l0.1-3.5c0.4,0,0.7,0,1,0c14.3-0.5,25.4-5,25.4-5S75.5,51.6,72,52c0.4-1.1,0.7-2.2,0.9-3.2
		c0.1-0.4,0.2-0.7,0.2-1.1c0.1-0.4,0.1-0.7,0.2-1c0.1-0.7,0.3-1.3,0.4-1.9c0-0.3,0.1-0.6,0.1-0.9c0-0.3,0.1-0.6,0.1-0.9
		c0-0.3,0.1-0.5,0.1-0.8c0-0.3,0-0.5,0.1-0.8c0.1-1,0.1-1.8,0.2-2.4c1.4-0.1,2.7-0.1,3.9-0.2c1.9-0.1,3.6-0.2,5.1-0.3
		c1.4-0.1,2.5-0.2,3.6-0.3c0,0,0,0.1,0,0.1c0,0.4,0,1.1-0.1,1.9c-0.1,1.6-0.5,4-1.4,7c-0.1,0.4-0.2,0.7-0.4,1.1
		c-0.1,0.4-0.3,0.8-0.4,1.2c-0.1,0.4-0.3,0.8-0.5,1.2c-0.1,0.2-0.2,0.4-0.3,0.6c-0.1,0.2-0.2,0.4-0.3,0.6c-0.8,1.7-1.8,3.4-3.1,5.1
		c-0.3,0.4-0.6,0.9-1,1.3c0.4-0.2,0.8-0.4,1.2-0.5c0.1-0.1,0.2-0.3,0.3-0.4c1.2-1.8,2.2-3.6,2.9-5.3c0.1-0.2,0.2-0.4,0.3-0.6
		c0.1-0.2,0.2-0.4,0.3-0.6c0.2-0.4,0.3-0.8,0.5-1.2c0.1-0.4,0.3-0.8,0.4-1.2c0.1-0.4,0.2-0.8,0.4-1.1c0.9-3,1.2-5.4,1.3-7
		c0.1-0.8,0.1-1.5,0.1-1.9c0,0,0-0.1,0-0.1c0.1,0,0.2,0,0.2,0C88.4,38.1,89.3,38,89.8,38z M72.1,36.7c-2.2-0.1-4.4-0.1-6.8-0.2
		c-2.4,0-4.8-0.1-7.3-0.1c-2.2,0-4.4,0-6.7,0l0.2-15.6c7.9,0.3,15.2,1,19.9,1.6c0.2,0.4,0.4,0.8,0.5,1.2c1,2.3,1.5,5.1,1.4,4.9
		c0,0,0-0.1,0-0.1c0,0.3,0.1,0.5,0.1,0.8c0.4,2.5,0.5,4.4,0.5,5.8c0,0.7,0,1.2,0,1.5c0,0.2,0,0.4,0,0.5
		C73.5,36.8,72.8,36.7,72.1,36.7z M44.5,5.9c-1.2,1.5-3.4,4.9-3.6,8.7l0,0c0-0.5,0.2-1.2,0.6-2.1c2.4-5.8,5.5-7,7.1-7.2
		c1,0.4,1.2,1.4,1.2,1.4L49.9,18c-7.4-0.1-13.7,0.9-18.4,2.1C36.4,10.5,41.3,7.1,44.5,5.9z M51.8,6.7c0,0,0.3-1,1.1-1.4
		c1.6,0.1,4.2,1.4,6.8,7.2c0.5,1,0.6,2.2,0.6,2.1c-0.2-4-2.6-7.5-3.8-9c3.1,0.9,8.9,4.1,14.4,15.6c-4.5-1.3-11.4-2.8-19.3-3.1
		L51.8,6.7z M30.6,22.1c5.3-0.9,12.1-1.6,19.4-1.5l0.3,15.7c-2.4,0-4.8,0-7.1,0c-2.5,0-4.9,0.1-7.3,0.1s-4.6,0.1-6.8,0.2
		c-0.3,0-0.6,0-1,0c0-0.1,0-0.3,0-0.5C28.3,31.5,29.1,26.6,30.6,22.1z M23,37c-1.9,0.1-3.6,0.2-5.1,0.3c-1.2,0.1-2.3,0.2-3.3,0.2
		c0-0.3,0-0.5,0-0.8c0.1-3.8,0.9-7.6,2.2-11.1C22.3,15,30.4,9.8,35.3,7.5c-1.6,1.3-3.7,3.4-4.8,6.2l0,0c0.2-0.5,0.6-1,1.2-1.8
		c2.2-2.9,4.4-4,6-4.5c-0.3,0.3-0.7,0.7-1,1c-1,1-1.8,2.2-2.6,3.3s-1.5,2.4-2.1,3.7c-0.6,1.3-1.2,2.6-1.7,3.9
		c-0.1,0.4-0.3,0.7-0.4,1.1c-6.1,1.7-9.4,3.7-9.4,3.7s3.4-1,8.8-1.9c-0.5,1.8-0.9,3.5-1.3,5.4c-0.2,1.4-0.4,2.9-0.5,4.3
		c-0.1,0.7-0.1,1.5-0.1,2.2c0,0.7,0,1.4,0,2.2c0,0.2,0,0.3,0,0.5C25.9,36.8,24.4,36.9,23,37z M30.3,51.9c-0.8-2.3-1.3-4.7-1.7-7.1
		c-0.3-1.9-0.4-3.9-0.5-5.8c0.3,0,0.6,0,1,0c2.2,0.1,4.4,0.1,6.8,0.2c2.4,0,4.8,0.1,7.3,0.1c2.4,0,4.8,0,7.1,0l0.2,14.2
		C42.9,53.7,35.6,52.8,30.3,51.9z M73.4,44.7c-0.4,2.1-1,4.7-2.1,7.4c-4.8,0.6-11.8,1.3-19.4,1.5c-0.3,0-0.5,0-0.8,0l0.2-14.2
		c2.3,0,4.5,0,6.7,0c2.5,0,4.9-0.1,7.3-0.1c2.4,0,4.6-0.1,6.8-0.2c0.7,0,1.3,0,2-0.1C74,40.3,73.9,42.2,73.4,44.7z M78.2,37
		c-1.2-0.1-2.5-0.1-3.9-0.2c0-0.1,0-0.2,0-0.5c0-0.4,0-0.9,0-1.5c0-1.3-0.1-3.3-0.5-5.8c-0.1-0.6-0.2-1.3-0.3-1.9
		c0-0.3-0.1-0.7-0.2-1c-0.1-0.4-0.1-0.7-0.2-1.1c-0.2-0.8-0.4-1.6-0.6-2.5c2.6,0.3,4.1,0.6,4.1,0.6s-1.6-0.6-4.4-1.5
		c-0.1-0.5-0.3-0.9-0.4-1.3c-0.5-1.7-1.2-3.4-2.1-5.2c-0.9-1.8-1.9-3.6-3.3-5.3c-0.5-0.6-1-1.2-1.5-1.8c1.5,0.5,3.3,1.6,5.3,3.8
		c0.7,0.8,1.1,1.2,1.4,1.7l0,0c-1.4-2.9-4-5-5.8-6.2c4.4,2,12.2,6.5,18,16c0,0.1,0.1,0.1,0.1,0.2c0.1,0.2,0.2,0.4,0.3,0.6
		c0.1,0.2,0.2,0.4,0.3,0.6c0.2,0.4,0.4,0.8,0.5,1.2c0.1,0.4,0.3,0.8,0.4,1.2c0.1,0.4,0.2,0.8,0.3,1.1c0.9,2.9,1.1,5.4,1.2,7
		c0.1,0.8,0,1.5,0.1,1.9c0,0.2,0,0.4,0,0.5c-1-0.1-2.2-0.2-3.6-0.3C81.8,37.2,80.1,37.1,78.2,37z"/>
</g>
</svg>
